<?xml version="1.0" encoding="UTF-8"?>
<svg version="1.1" xmlns="http://www.w3.org/2000/svg" width="225" height="225">
<path d="M0 0 C74.25 0 148.5 0 225 0 C225 74.25 225 148.5 225 225 C150.75 225 76.5 225 0 225 C0 150.75 0 76.5 0 0 Z " fill="#FEFDFD" transform="translate(0,0)"/>
<path d="M0 0 C1.33267662 0.01441132 1.33267662 0.01441132 2.692276 0.02911377 C5.61410811 0.06196142 8.53578397 0.10234754 11.45751953 0.14282227 C13.48918109 0.16713731 15.52084834 0.19098017 17.55252075 0.21437073 C22.88890091 0.27707393 28.2251796 0.34617934 33.5614624 0.41662598 C39.01114294 0.48743398 44.46089518 0.55217625 49.91064453 0.61743164 C60.59561918 0.74626648 71.28049644 0.88186615 81.96533203 1.02172852 C81.99431669 3.21565914 82.01476106 5.40970337 82.03173828 7.60375977 C82.05022827 9.43644409 82.05022827 9.43644409 82.0690918 11.30615234 C81.31750648 38.21998041 65.62543708 62.94021365 46.90283203 81.14672852 C29.40495636 96.43251479 6.13684756 107.13632876 -17.28564453 107.04736328 C-18.54878479 107.04366226 -19.81192505 107.03996124 -21.11334229 107.03614807 C-22.07737976 107.03138962 -23.04141724 107.02663116 -24.03466797 107.02172852 C-24.10423656 95.01696683 -24.1575142 83.01225326 -24.19010448 71.00733089 C-24.20574768 65.43271187 -24.22696159 59.85823095 -24.26098633 54.28369141 C-24.29362745 48.90204578 -24.31153111 43.52053285 -24.3192997 38.13879585 C-24.32483464 36.08752924 -24.33564306 34.03626973 -24.35185814 31.98505974 C-24.37369538 29.10771979 -24.37663224 26.23092536 -24.37524414 23.35351562 C-24.38602997 22.50906387 -24.3968158 21.66461212 -24.40792847 20.79457092 C-24.37449229 14.37213067 -23.23152618 9.61801549 -18.97216797 4.58422852 C-17.03466797 3.02172852 -17.03466797 3.02172852 -15.03466797 3.02172852 C-15.03466797 2.36172852 -15.03466797 1.70172852 -15.03466797 1.02172852 C-9.95592698 -0.01815931 -5.15219785 -0.08042538 0 0 Z " fill="#FACD0B" transform="translate(137.03466796875,111.978271484375)"/>
<path d="M0 0 C12.98656493 -0.02314185 25.97312498 -0.04092453 38.95970631 -0.05181217 C44.98950235 -0.05703695 51.01928432 -0.06412729 57.04907227 -0.07543945 C62.86510545 -0.08628266 68.68112507 -0.0922799 74.49716759 -0.09487724 C76.71918641 -0.09672889 78.94120447 -0.10034456 81.16321754 -0.10573006 C84.26874029 -0.11295945 87.37420656 -0.11399013 90.47973633 -0.11352539 C91.40402435 -0.11712067 92.32831238 -0.12071594 93.28060913 -0.12442017 C94.12614853 -0.1230455 94.97168793 -0.12167084 95.84284973 -0.12025452 C96.57751874 -0.12117631 97.31218775 -0.1220981 98.06911945 -0.12304783 C100 0 100 0 103 1 C106.19975426 6.87437041 106.42194935 13.30591122 106.34057617 19.83422852 C106.34123329 21.24071404 106.34123329 21.24071404 106.34190369 22.6756134 C106.3398306 25.74359707 106.31656981 28.81101925 106.29296875 31.87890625 C106.28736753 34.01838381 106.28309992 36.15786523 106.28010559 38.29734802 C106.26869828 43.9049864 106.23926663 49.5123885 106.20599365 55.11993408 C106.17520386 60.85140793 106.16158126 66.58292026 106.14648438 72.31445312 C106.11439288 83.54307207 106.06324654 94.77151632 106 106 C104.42401024 106.01212718 102.84799297 106.02070734 101.27197266 106.02783203 C100.39433258 106.03299835 99.5166925 106.03816467 98.61245728 106.04348755 C75.49076798 105.65859873 53.08274052 95.03865191 36 80 C34.96875 79.21625 33.9375 78.4325 32.875 77.625 C14.25145659 60.62089515 2.37879429 34.91474018 0 10 C-0.02014911 8.26866088 -0.0252398 6.53710752 -0.01855469 4.80566406 C-0.01587585 3.90559631 -0.01319702 3.00552856 -0.01043701 2.07818604 C-0.0069928 1.39238464 -0.00354858 0.70658325 0 0 Z " fill="#020202" transform="translate(5,113)"/>
<path d="M0 0 C0 30.36 0 60.72 0 92 C-0.66 92 -1.32 92 -2 92 C-1.4121875 93.36125 -1.4121875 93.36125 -0.8125 94.75 C0 98 0 98 -1.25 100.375 C-3 102 -3 102 -5 102 C-4.67 103.32 -4.34 104.64 -4 106 C-37.66 106 -71.32 106 -106 106 C-106 91.7920546 -106 91.7920546 -104.5 84.9375 C-104.24150269 83.74157227 -104.24150269 83.74157227 -103.9777832 82.52148438 C-100.8453022 69.12616169 -95.15534039 56.09631491 -87 45 C-86.39671875 44.17628906 -85.7934375 43.35257813 -85.171875 42.50390625 C-66.10977969 17.66894062 -40.90325069 4.71369994 -10.46191406 0.21191406 C-6.98674446 -0.08721795 -3.48802003 0 0 0 Z " fill="#FCCE09" transform="translate(111,5)"/>
<path d="M0 0 C27.15685559 1.69730347 48.98642237 8.21928047 70 26 C70.61359375 26.47953125 71.2271875 26.9590625 71.859375 27.453125 C91.97371114 43.50768687 102.752763 70.10451634 106 95 C106 98.63 106 102.26 106 106 C75.97 106 45.94 106 15 106 C15.66 104.02 16.32 102.04 17 100 C13.88214887 100.64644661 13.88214887 100.64644661 13 103 C12.34 103 11.68 103 11 103 C11 103.66 11 104.32 11 105 C11.66 105.33 12.32 105.66 13 106 C12.01 106 11.02 106 10 106 C10 105.34 10 104.68 10 104 C9.401875 103.855625 8.80375 103.71125 8.1875 103.5625 C6.43849596 103.1127561 4.71322977 102.57107659 3 102 C3 101.01 3 100.02 3 99 C2.34 99 1.68 99 1 99 C1.33 97.68 1.66 96.36 2 95 C1.34 94.67 0.68 94.34 0 94 C0 62.98 0 31.96 0 0 Z " fill="#010101" transform="translate(113,5)"/>
<path d="M0 0 C4.91422007 2.84134947 7.4560247 7.54781056 9.6875 12.625 C10.34003661 15.06661051 10.57708658 17.08549137 10.6875 19.625 C12.6675 19.625 14.6475 19.625 16.6875 19.625 C16.6875 21.605 16.6875 23.585 16.6875 25.625 C14.7075 25.625 12.7275 25.625 10.6875 25.625 C10.6875 37.175 10.6875 48.725 10.6875 60.625 C7.3875 60.625 4.0875 60.625 0.6875 60.625 C0.6875 49.075 0.6875 37.525 0.6875 25.625 C-2.9425 25.625 -6.5725 25.625 -10.3125 25.625 C-10.3125 28.595 -10.3125 31.565 -10.3125 34.625 C-16.9125 34.625 -23.5125 34.625 -30.3125 34.625 C-30.3125 36.275 -30.3125 37.925 -30.3125 39.625 C-28.55873047 39.66367188 -28.55873047 39.66367188 -26.76953125 39.703125 C-25.22131774 39.75942367 -23.6731421 39.81677062 -22.125 39.875 C-21.35607422 39.88917969 -20.58714844 39.90335938 -19.79492188 39.91796875 C-14.74180169 40.13484086 -11.9779812 40.84216818 -8.3125 44.625 C-5.82482297 48.35651555 -5.67821292 51.30391924 -6.3125 55.625 C-7.64237396 59.44083154 -9.5916391 62.0663328 -12.8125 64.5625 C-21.33775487 67.1505238 -30.17702592 66.07247926 -38.3125 62.625 C-40.47852682 61.41635703 -42.33410548 60.1348274 -44.3125 58.625 C-43.5625 50.875 -43.5625 50.875 -41.3125 48.625 C-40.80460937 48.96273437 -40.29671875 49.30046875 -39.7734375 49.6484375 C-33.28662866 53.85150091 -28.22684473 56.08159681 -20.3125 55.625 C-19.3225 55.13 -19.3225 55.13 -18.3125 54.625 C-17.65694881 52.09766765 -17.65694881 52.09766765 -17.3125 49.625 C-18.39789063 49.59921875 -19.48328125 49.5734375 -20.6015625 49.546875 C-22.04691349 49.49056262 -23.49222444 49.433216 -24.9375 49.375 C-25.65035156 49.36082031 -26.36320312 49.34664062 -27.09765625 49.33203125 C-32.21639444 49.09722675 -35.24242803 47.97394811 -39.3125 44.625 C-41.81281654 40.87452518 -41.84853554 39.06643734 -41.3125 34.625 C-39.1397578 31.99483839 -37.36576212 30.15163106 -34.3125 28.625 C-31.93847499 28.55383618 -29.56249323 28.54090915 -27.1875 28.5625 C-25.90617187 28.57152344 -24.62484375 28.58054688 -23.3046875 28.58984375 C-22.31726563 28.60144531 -21.32984375 28.61304688 -20.3125 28.625 C-20.3125 27.635 -20.3125 26.645 -20.3125 25.625 C-28.8925 25.625 -37.4725 25.625 -46.3125 25.625 C-46.3125 23.315 -46.3125 21.005 -46.3125 18.625 C-38.7225 18.625 -31.1325 18.625 -23.3125 18.625 C-23.395 16.76875 -23.4775 14.9125 -23.5625 13 C-23.5625 7.42736897 -23.14723394 4.67277472 -19.3125 0.625 C-13.67531689 -2.87394124 -6.02022712 -2.45912938 0 0 Z " fill="#060500" transform="translate(168.3125,122.375)"/>
<path d="M0 0 C18.81 0 37.62 0 57 0 C57 2.31 57 4.62 57 7 C55.02 7 53.04 7 51 7 C51 20.86 51 34.72 51 49 C47.37 49 43.74 49 40 49 C40 35.14 40 21.28 40 7 C35.545 7.495 35.545 7.495 31 8 C31.48597656 8.70511719 31.97195312 9.41023438 32.47265625 10.13671875 C35.30083835 15.43865603 34.87389867 21.647307 33.37890625 27.3828125 C31.44323966 31.90797084 28.6482479 34.78098948 24.34765625 37.15234375 C19.89922806 38.75851499 15.6335083 38.76516651 11 38 C6.5668765 35.86260117 3.87469354 33.5825842 2 29 C1.27550466 24.59936164 1.44463395 21.87007348 3.875 18.0625 C7.44330848 14.59914177 9.7436765 14.88964389 14.625 14.9375 C15.81351563 14.94652344 17.00203125 14.95554687 18.2265625 14.96484375 C19.14179688 14.97644531 20.05703125 14.98804688 21 15 C21 17.31 21 19.62 21 22 C18.03 22.33 15.06 22.66 12 23 C12.33 24.32 12.66 25.64 13 27 C16.41642759 27.25015873 16.41642759 27.25015873 20 27 C22.20691827 23.6896226 22.29659859 22.49434314 22.3125 18.625 C22.32925781 17.68914063 22.34601563 16.75328125 22.36328125 15.7890625 C21.90308293 12.25592699 21.47853343 10.61313543 19 8 C15.78032067 7.23084361 12.61177135 7.20922161 9.3125 7.1875 C8.41982422 7.16236328 7.52714844 7.13722656 6.60742188 7.11132812 C4.40450561 7.05242662 2.20357681 7.01617246 0 7 C0 4.69 0 2.38 0 0 Z " fill="#F6F6F6" transform="translate(128,44)"/>
<path d="M0 0 C14.85 0 29.7 0 45 0 C45 2.31 45 4.62 45 7 C43.02 7 41.04 7 39 7 C39 20.86 39 34.72 39 49 C35.7 49 32.4 49 29 49 C29 43.39 29 37.78 29 32 C27.02 32.99 25.04 33.98 23 35 C18.45436379 35.8409427 14.89276524 35.40427105 10.6875 33.5 C5.9935054 29.13349339 3.99625233 25.39213123 3.7578125 18.921875 C3.71095354 14.94151539 3.82627533 10.97636468 4 7 C2.68 7 1.36 7 0 7 C0 4.69 0 2.38 0 0 Z " fill="#090800" transform="translate(46,44)"/>
<path d="M0 0 C14.85 0 29.7 0 45 0 C45 2.31 45 4.62 45 7 C42.03 7 39.06 7 36 7 C36 9.97 36 12.94 36 16 C29.73 16.33 23.46 16.66 17 17 C17 17.99 17 18.98 17 20 C18.53720703 20.05607422 18.53720703 20.05607422 20.10546875 20.11328125 C21.46618062 20.17897079 22.82685611 20.24541709 24.1875 20.3125 C24.86103516 20.33505859 25.53457031 20.35761719 26.22851562 20.38085938 C30.61454126 20.61620709 33.47963015 21.35972262 37 24 C39.85123003 27.44113969 40.5377543 30.46433982 40.3515625 34.94140625 C39.58268469 39.44361296 37.46987643 42.88059233 33.8046875 45.671875 C27.67812766 48.57303147 19.40051767 47.88482858 12.9375 46.203125 C8.94053006 44.6566783 5.12147678 42.99406957 2 40 C1.7578125 37.7734375 1.7578125 37.7734375 2.125 35.375 C2.23070312 34.57835937 2.33640625 33.78171875 2.4453125 32.9609375 C2.71988281 31.99027344 2.71988281 31.99027344 3 31 C3.66 30.67 4.32 30.34 5 30 C7.0234375 30.9609375 7.0234375 30.9609375 9.375 32.375 C13.99623403 35.14155817 17.36759961 36.14165295 22.75 36.0625 C23.54921875 36.05347656 24.3484375 36.04445312 25.171875 36.03515625 C25.77515625 36.02355469 26.3784375 36.01195312 27 36 C27.59070014 34.05396726 27.59070014 34.05396726 28 32 C26.12877907 30.12877907 22.81831074 30.77914407 20.3125 30.6875 C14.55742763 30.31866016 11.2023738 29.96890859 7 26 C4.88115165 22.82172747 4.4284726 20.81055871 4.58984375 17.0078125 C5.15650062 14.23389219 6.38370021 12.49382272 8.66796875 10.83203125 C14.07942521 8.9013106 20.3350819 9.67567263 26 10 C26 9.01 26 8.02 26 7 C17.42 7 8.84 7 0 7 C0 4.69 0 2.38 0 0 Z " fill="#F6F6F6" transform="translate(42,141)"/>
<path d="M0 0 C2.96175123 0.61277612 4.38058783 1.25372522 7 3 C6.34 4.32 5.68 5.64 5 7 C5.66 7 6.32 7 7 7 C7 7.99 7 8.98 7 10 C7.598125 10.144375 8.19625 10.28875 8.8125 10.4375 C10.56150404 10.8872439 12.28677023 11.42892341 14 12 C14.33 11.67 14.66 11.34 15 11 C15.66 11 16.32 11 17 11 C17.33 10.01 17.66 9.02 18 8 C18.99 8 19.98 8 21 8 C20.67 9.65 20.34 11.3 20 13 C64.55 13.495 64.55 13.495 110 14 C110 14.33 110 14.66 110 15 C61.985 15.495 61.985 15.495 13 16 C13 16.66 13 17.32 13 18 C12.34 18 11.68 18 11 18 C10.71125 18.639375 10.4225 19.27875 10.125 19.9375 C9 22 9 22 7 23 C6.32060826 24.99571323 5.65438441 26.99594773 5 29 C4.34 29.66 3.68 30.32 3 31 C-1.59225513 21.58997722 -1.59225513 21.58997722 -1 17 C-2.32 16.67 -3.64 16.34 -5 16 C-5 15.34 -5 14.68 -5 14 C-4.01 14 -3.02 14 -2 14 C-2.37125 13.13375 -2.37125 13.13375 -2.75 12.25 C-2.8325 11.5075 -2.915 10.765 -3 10 C-2.34 9.38125 -1.68 8.7625 -1 8.125 C-0.34 7.42375 0.32 6.7225 1 6 C0.85650653 2.80045046 0.85650653 2.80045046 0 0 Z " fill="#EEEEEE" transform="translate(109,97)"/>
<path d="M0 0 C4.95 0 9.9 0 15 0 C15.60587515 11.02692778 15.60587515 11.02692778 12.9375 15.3125 C10 17 10 17 6.375 17.125 C3 16 3 16 1.0625 14.125 C-0.55675765 9.3624775 -0.18128998 5.01568944 0 0 Z " fill="#F6CA08" transform="translate(60,51)"/>
<path d="M0 0 C2.48405436 2.23564893 2.93906627 3.64201436 3.5 6.9375 C3 10 3 10 0.9375 12.9375 C-2 15 -2 15 -5.625 15.0625 C-9 14 -9 14 -10.9375 12.3125 C-12.33817538 9.26397123 -12.4842732 7.32073048 -12 4 C-8.22330601 -0.65792259 -5.80655763 -1.54051529 0 0 Z " fill="#F4F4F4" transform="translate(77,124)"/>
<path d="M0 0 C4.31776354 0.59263421 5.56236104 2.01023525 8.1875 5.4375 C9.12133969 7.77935706 9.6524863 9.95698192 10.1875 12.4375 C8.25068839 12.51857583 6.3129066 12.57672475 4.375 12.625 C3.29605469 12.65980469 2.21710938 12.69460937 1.10546875 12.73046875 C-1.8125 12.4375 -1.8125 12.4375 -3.6796875 11.1484375 C-5.55369749 8.3180362 -5.11064274 5.71707019 -4.8125 2.4375 C-2.8125 0.4375 -2.8125 0.4375 0 0 Z " fill="#E9C008" transform="translate(158.8125,129.5625)"/>
<path d="M0 0 C0.08142927 1.7492214 0.13938541 3.49954542 0.1875 5.25 C0.22230469 6.22453125 0.25710937 7.1990625 0.29296875 8.203125 C-0.04523015 11.43179714 -0.67320295 12.75781375 -3 15 C-6.6875 15.25 -6.6875 15.25 -10 15 C-10.33 13.35 -10.66 11.7 -11 10 C-8.04335481 8.5216774 -5.25770263 8.93967217 -2 9 C-2 6.69 -2 4.38 -2 2 C-5.3 2 -8.6 2 -12 2 C-12 1.67 -12 1.34 -12 1 C-10.18755015 0.83278881 -8.37503867 0.66624559 -6.5625 0.5 C-5.55316406 0.4071875 -4.54382813 0.314375 -3.50390625 0.21875 C-1 0 -1 0 0 0 Z " fill="#1A1A1A" transform="translate(151,57)"/>
<path d="M0 0 C0.99 0 1.98 0 3 0 C2.125 6.875 2.125 6.875 1 8 C-0.66617115 8.04063832 -2.33388095 8.042721 -4 8 C-3.67 6.35 -3.34 4.7 -3 3 C-2.34 3 -1.68 3 -1 3 C-0.67 2.01 -0.34 1.02 0 0 Z " fill="#C1C1C2" transform="translate(127,105)"/>
<path d="M0 0 C2.96175123 0.61277612 4.38058783 1.25372522 7 3 C5.68 4.32 4.36 5.64 3 7 C2.34 6.67 1.68 6.34 1 6 C0.375 2.9375 0.375 2.9375 0 0 Z " fill="#DEDCD6" transform="translate(109,97)"/>
</svg>
